<?xml version="1.0" standalone="no"?>
<!DOCTYPE svg PUBLIC "-//W3C//DTD SVG 20010904//EN"
 "http://www.w3.org/TR/2001/REC-SVG-20010904/DTD/svg10.dtd">
<svg version="1.0" xmlns="http://www.w3.org/2000/svg"
 width="1167.000000pt" height="1167.000000pt" viewBox="0 0 1167.000000 1167.000000"
 preserveAspectRatio="xMidYMid meet">
<metadata>
Created by potrace 1.16, written by Peter Selinger 2001-2019
</metadata>
<g transform="translate(0.000000,1167.000000) scale(0.100000,-0.100000)"
fill="#000000" stroke="none">
<path d="M7727 11223 c-23 -9 -36 -21 -33 -29 7 -19 -40 -45 -89 -48 -52 -4
-84 -29 -65 -51 9 -11 9 -18 -4 -30 -9 -9 -16 -25 -16 -35 0 -10 -8 -21 -18
-25 -22 -6 -42 -45 -42 -81 0 -14 -7 -27 -17 -31 -10 -4 -30 -17 -45 -29 -15
-12 -57 -36 -93 -53 -36 -17 -65 -35 -65 -41 0 -5 -4 -10 -9 -10 -5 0 -32 -14
-59 -31 -37 -23 -56 -28 -76 -23 -46 11 -48 33 -5 98 21 32 40 62 41 65 2 4
30 27 64 52 50 38 139 80 226 106 16 5 32 42 22 52 -8 8 -597 -297 -1278 -662
l-159 -86 54 5 c30 3 119 9 199 13 l145 8 -134 1 c-74 1 -132 4 -129 7 3 3 79
7 169 9 152 4 168 6 214 30 28 14 60 26 73 26 12 0 22 6 22 14 0 8 7 16 15 20
11 4 15 -2 15 -25 0 -22 12 -42 49 -79 27 -28 56 -50 64 -50 8 0 20 -7 28 -16
10 -13 10 -17 -2 -25 -8 -5 -9 -9 -4 -10 6 -1 17 -3 25 -4 47 -7 60 -18 60
-51 0 -37 20 -48 21 -11 0 21 1 21 10 -3 11 -27 -2 -70 -21 -70 -5 0 -10 -18
-10 -40 0 -22 5 -40 10 -40 6 0 10 8 10 19 0 14 8 18 33 19 62 2 67 3 82 30 8
15 30 41 49 57 20 17 49 42 65 57 16 14 47 29 69 33 22 3 50 16 62 27 12 12
41 23 66 26 40 4 47 1 74 -27 36 -37 37 -47 7 -55 -29 -7 -77 -50 -77 -69 0
-8 -14 -32 -31 -53 -27 -34 -30 -45 -26 -82 3 -24 12 -48 20 -55 9 -7 26 -41
38 -77 12 -36 26 -71 32 -77 5 -7 6 -13 2 -13 -5 0 0 -9 10 -20 10 -11 26 -20
36 -20 10 0 21 -4 24 -10 10 -16 48 -12 90 11 32 16 50 19 90 13 44 -6 95 -11
133 -13 6 -1 12 -10 12 -21 0 -11 6 -20 14 -20 7 0 16 -13 19 -29 7 -31 10
-33 100 -51 54 -11 58 -14 52 -33 -5 -12 -7 -38 -7 -57 1 -19 2 -55 2 -80 1
-25 7 -52 13 -60 19 -23 55 -41 62 -30 7 11 5 306 -2 338 -6 26 -34 29 -57 7
-19 -19 -36 -19 -36 0 0 7 -8 18 -17 24 -16 8 -15 11 8 21 21 10 24 17 21 46
-6 49 7 112 19 93 6 -11 9 -8 9 10 0 14 12 38 28 54 l27 28 0 479 0 479 -45
46 c-25 26 -61 63 -81 83 -19 20 -48 63 -62 95 -15 31 -33 57 -40 56 -7 0 -29
-7 -50 -16z"/>
<path d="M4195 9312 c-251 -156 -406 -263 -417 -287 -8 -17 -6 -48 7 -120 28
-155 13 -246 -79 -467 -19 -47 -37 -101 -38 -120 l-3 -33 76 -6 c78 -7 128
-24 288 -101 47 -23 123 -52 170 -64 236 -65 561 8 694 156 61 68 117 179 123
243 4 44 0 60 -23 102 -33 59 -64 76 -178 100 -127 26 -181 44 -200 65 -18 20
-17 20 16 20 62 0 243 -28 296 -46 71 -23 88 -10 79 60 -5 49 -61 182 -103
246 -13 19 -23 41 -23 50 0 58 -119 217 -180 242 -74 29 -179 48 -269 47 l-96
0 -140 -87z"/>
<path d="M3309 8702 c-584 -438 -1088 -949 -1368 -1387 -45 -71 -51 -86 -51
-133 0 -49 -1 -52 -16 -38 -8 9 -18 16 -22 16 -11 0 -92 -137 -92 -154 0 -3
33 -3 73 0 l73 7 13 -71 c7 -39 10 -76 6 -82 -3 -5 -21 -10 -38 -10 -18 0 -72
-7 -122 -15 -49 -8 -93 -15 -96 -15 -6 0 -49 -92 -49 -104 0 -11 219 -6 244 5
13 6 27 22 30 35 9 32 54 44 73 18 7 -10 11 -24 9 -30 -3 -7 7 -22 21 -35 13
-13 31 -39 39 -57 16 -38 35 -178 27 -198 -5 -14 0 -15 -205 11 -64 8 -163 17
-220 21 l-104 7 -12 -28 c-19 -42 -98 -318 -120 -425 -135 -626 -155 -1251
-61 -1895 21 -145 64 -364 74 -373 3 -3 20 10 38 30 30 33 122 88 147 88 6 0
24 10 40 21 26 20 38 21 122 17 58 -3 105 -11 125 -21 18 -10 46 -17 62 -17
28 0 53 -7 106 -32 35 -15 203 2 231 23 15 12 101 -5 123 -25 10 -9 25 -16 34
-16 9 0 17 -4 17 -10 0 -5 7 -10 15 -10 8 0 15 -4 15 -10 0 -15 68 -12 98 4
15 8 50 22 78 31 30 9 64 29 84 50 20 21 44 35 58 35 19 0 22 4 17 20 -5 16
-2 20 14 20 12 0 21 5 21 10 0 6 20 10 45 10 37 0 50 -5 80 -35 19 -20 35 -44
35 -55 0 -43 -75 -143 -137 -181 -41 -25 -80 -37 -168 -49 -75 -11 -125 -27
-125 -41 0 -5 -35 -26 -77 -47 -43 -22 -105 -57 -138 -79 -141 -93 -295 -151
-447 -167 -51 -6 -197 15 -268 38 -25 8 -73 23 -106 34 l-62 19 20 -71 c87
-319 238 -717 379 -998 l49 -98 2968 0 c1632 0 2972 4 2977 8 6 4 10 14 10 22
0 10 12 16 33 18 35 4 40 13 17 32 -8 7 -12 16 -9 21 9 16 39 10 57 -11 22
-26 22 -49 0 -44 -11 3 -23 -3 -30 -15 -12 -18 -9 -20 50 -26 34 -3 271 -5
527 -3 l464 3 64 75 c104 123 283 365 385 520 241 370 464 817 617 1238 130
359 153 461 224 997 64 481 126 1167 126 1401 l0 32 -67 7 c-38 3 -86 10 -108
15 -22 5 -52 11 -67 15 -16 3 -28 10 -28 15 0 12 81 48 160 70 112 32 110 31
110 56 0 14 -5 22 -12 20 -7 -3 -74 -18 -148 -36 -75 -17 -146 -40 -160 -50
-20 -16 -22 -20 -7 -20 9 0 17 -5 17 -11 0 -7 -8 -9 -22 -4 -13 4 -54 11 -93
15 -38 4 -97 17 -130 29 -100 35 -246 114 -293 158 -35 33 -48 40 -58 32 -10
-8 -10 0 2 35 33 97 181 193 393 255 113 34 430 101 474 101 15 0 30 6 33 14
3 8 2 56 -3 108 l-8 93 -75 0 c-73 0 -78 2 -152 48 -60 37 -85 47 -119 47 -24
0 -57 7 -73 15 -34 18 -49 9 -73 -44 -13 -27 -17 -67 -17 -156 -1 -119 -1
-119 -28 -134 -23 -13 -32 -14 -60 -2 -237 96 -300 106 -450 72 -94 -22 -211
-71 -296 -125 -23 -14 -55 -26 -72 -26 -36 0 -37 -6 -10 -94 17 -54 20 -81 14
-144 -7 -91 -21 -117 -66 -125 -18 -3 -71 -13 -118 -22 -148 -27 -281 -45
-425 -56 -77 -6 -189 -16 -250 -24 -60 -7 -113 -11 -117 -8 -5 2 -8 41 -8 86
l0 82 78 80 c42 44 86 85 97 91 11 7 47 26 80 44 33 17 74 40 90 50 17 10 107
52 201 93 126 56 186 77 228 81 59 5 86 18 86 43 0 26 -32 26 -113 0 -45 -14
-109 -33 -142 -41 -54 -13 -148 -61 -192 -97 -44 -37 -364 -225 -393 -231 -11
-2 -16 9 -20 47 l-5 50 -50 8 c-95 16 -127 14 -139 -8 -6 -11 -14 -22 -17 -25
-4 -3 -9 -15 -13 -27 -5 -16 -15 -23 -32 -23 -26 0 -32 -26 -14 -60 8 -15 6
-22 -11 -33 -17 -12 -19 -19 -10 -34 19 -37 -6 -113 -46 -136 -15 -9 -18 -97
-3 -97 6 0 10 -11 10 -25 0 -14 -4 -25 -10 -25 -5 0 -12 -17 -16 -37 -4 -21
-12 -41 -18 -45 -8 -5 -7 -8 2 -8 27 0 9 -20 -28 -30 -22 -6 -40 -17 -40 -24
0 -29 -56 -33 -170 -12 -41 8 -111 17 -155 21 -44 4 -141 20 -215 36 -83 18
-158 29 -195 28 -49 -2 -61 0 -63 14 -2 9 -12 19 -22 22 -18 6 -18 7 1 26 24
24 17 39 -19 39 -15 0 -38 9 -51 19 -28 22 -22 53 14 69 18 8 29 25 37 57 9
34 24 55 54 81 41 33 44 39 80 162 2 6 10 12 17 12 12 0 14 28 12 163 -3 225
-10 248 -104 345 -87 90 -162 133 -311 180 -227 72 -385 65 -522 -22 -84 -54
-124 -103 -184 -227 -25 -52 -53 -102 -61 -111 -30 -33 -130 -16 -197 33 -22
16 -44 29 -49 29 -5 0 -27 16 -48 35 -22 19 -49 35 -60 35 -12 0 -47 13 -78
29 -75 39 -148 68 -194 76 -22 4 -62 22 -91 39 -28 17 -96 51 -149 75 -72 33
-97 49 -97 62 0 11 -9 24 -20 31 -11 7 -20 18 -20 25 0 19 -71 25 -182 13 -72
-7 -120 -7 -150 0 -52 12 -278 13 -278 2 0 -20 107 -58 213 -75 68 -11 72 -14
75 -39 3 -29 4 -29 -78 -57 -19 -7 -77 -15 -127 -18 l-93 -6 0 -37 c0 -26 12
-55 39 -97 39 -61 61 -133 61 -202 l0 -37 68 -17 c37 -9 103 -21 147 -27 175
-21 237 -30 400 -60 214 -39 272 -54 414 -102 63 -21 116 -36 119 -33 5 5
-102 55 -119 55 -5 0 -24 7 -41 16 -22 12 -27 19 -19 27 16 16 13 127 -5 209
-15 64 -15 72 0 86 14 15 18 14 45 -6 17 -12 34 -22 39 -22 5 0 29 -11 54 -24
24 -13 55 -27 69 -31 53 -16 155 -71 172 -91 9 -13 30 -24 45 -26 17 -2 31
-12 37 -26 5 -12 22 -28 37 -35 16 -6 28 -17 28 -24 0 -7 9 -18 20 -25 11 -7
20 -18 20 -24 0 -7 13 -17 29 -22 16 -6 34 -19 40 -30 6 -11 29 -38 51 -61 22
-22 40 -47 40 -55 0 -9 18 -27 40 -41 25 -16 40 -33 40 -45 0 -11 -4 -20 -10
-20 -21 0 -9 -20 13 -21 17 -1 15 -3 -10 -10 -28 -8 -33 -14 -33 -40 0 -30 3
-33 50 -43 14 -3 31 -15 39 -27 12 -20 11 -24 -10 -40 -32 -25 -45 -24 -77 6
-33 30 -42 31 -42 4 0 -15 13 -26 50 -42 30 -14 50 -28 50 -39 0 -9 5 -18 12
-20 18 -6 1 -25 -29 -33 -16 -3 -43 -14 -61 -22 -21 -10 -46 -13 -69 -10 -20
4 -44 2 -53 -3 -11 -6 -31 -5 -55 1 -30 9 -47 7 -83 -7 -42 -16 -44 -18 -27
-30 10 -8 42 -14 69 -14 29 0 59 -7 70 -15 25 -19 55 -19 76 0 56 51 351 40
401 -14 21 -22 168 -36 232 -22 23 6 54 12 68 15 31 7 51 44 37 69 -7 13 -23
17 -62 17 -113 0 -297 50 -276 75 5 6 7 15 4 18 -25 24 145 19 206 -6 19 -9
71 -16 115 -18 85 -3 105 -10 105 -39 0 -10 5 -20 12 -22 18 -6 -1 -28 -25
-28 -16 0 -18 -3 -9 -12 18 -18 15 -26 -18 -43 -28 -15 -29 -17 -14 -32 24
-24 81 -53 104 -53 16 0 20 -7 20 -31 l0 -32 89 7 c74 6 94 5 114 -9 31 -20
41 -43 26 -62 -9 -10 -9 -19 1 -38 7 -14 11 -26 9 -28 -2 -2 -15 -11 -29 -20
-20 -14 -21 -17 -6 -17 13 0 17 -5 13 -20 -3 -11 1 -23 8 -28 19 -11 55 -88
55 -118 0 -16 -13 -39 -35 -61 -19 -19 -35 -45 -35 -57 0 -42 -83 -96 -214
-141 -73 -25 -86 -26 -187 -20 -59 4 -123 5 -141 1 -31 -6 -33 -9 -34 -48 -2
-57 -33 -83 -89 -73 -22 3 -61 9 -88 12 -57 7 -70 21 -27 29 69 14 -13 57 -90
47 -25 -3 -56 -13 -70 -23 -58 -38 -132 -60 -209 -60 -47 -1 -86 -6 -101 -15
-14 -8 -44 -14 -67 -15 -37 0 -46 -4 -65 -33 -26 -40 -89 -67 -228 -97 -52
-12 -124 -28 -160 -37 -75 -18 -154 -27 -400 -42 -96 -6 -209 -15 -250 -21
-41 -6 -127 -15 -190 -20 -63 -5 -185 -17 -270 -25 -133 -13 -178 -14 -315 -3
-90 7 -280 12 -436 11 -270 -2 -303 -5 -499 -44 -76 -15 -184 -4 -268 27 -67
24 -71 28 -87 72 -10 26 -31 66 -47 90 -21 32 -29 57 -31 97 -1 30 3 59 9 65
7 7 61 7 184 -1 107 -6 323 -8 560 -4 391 6 533 13 650 34 36 6 97 16 135 22
39 7 99 18 135 25 36 8 105 21 155 29 49 8 97 17 105 21 8 3 50 10 93 15 43 4
84 12 90 17 7 6 57 15 112 22 55 6 107 17 115 24 22 19 78 36 117 36 18 0 41
4 51 9 9 5 44 17 77 26 91 26 130 45 141 69 6 15 21 23 52 27 32 4 49 14 70
38 l27 33 175 -11 c660 -42 1060 -78 1060 -96 0 -1 -12 -24 -26 -49 -15 -27
-23 -51 -18 -56 17 -15 50 8 112 78 l62 70 -25 16 c-14 9 -25 22 -25 29 0 7
-9 20 -20 30 -11 9 -20 23 -20 31 0 8 -6 17 -12 19 -15 6 63 9 178 8 44 -1 91
3 105 8 24 10 24 10 -6 11 -327 12 -318 11 -306 43 10 29 13 106 4 121 -4 6
-6 23 -4 38 3 33 -9 36 -27 7 -10 -16 -10 -24 -2 -35 22 -25 11 -138 -14 -147
-8 -3 -11 -16 -9 -34 l5 -29 -64 7 c-70 9 -329 22 -781 40 -233 9 -300 15
-304 26 -3 7 -14 13 -25 13 -11 0 -37 18 -57 40 -22 24 -49 42 -68 46 -41 8
-42 29 -8 99 14 28 25 58 25 67 0 10 14 25 31 34 17 8 61 43 98 77 64 59 99
116 100 163 1 29 42 39 84 20 79 -36 114 -47 178 -52 49 -5 73 -3 84 6 14 12
13 15 -12 31 -15 11 -39 19 -52 19 -13 0 -38 8 -55 18 -17 11 -51 20 -75 21
-25 1 -49 4 -53 7 -5 3 -40 -10 -77 -30 -86 -45 -294 -106 -386 -113 -38 -2
-106 -15 -150 -28 -125 -36 -400 -65 -870 -90 -350 -19 -459 -19 -474 -1 -9
11 -6 15 14 20 37 9 22 24 -31 32 -45 6 -46 7 -41 38 3 22 -2 40 -19 63 -13
17 -28 43 -33 56 -6 16 -21 28 -40 32 -17 4 -31 11 -31 16 0 17 -56 9 -73 -11
-9 -11 -26 -20 -38 -20 -20 0 -21 -3 -14 -104 7 -103 7 -104 -17 -120 -22 -14
-33 -14 -114 -1 -49 8 -92 15 -96 15 -5 0 -8 8 -8 18 0 9 -9 28 -20 42 -11 14
-20 32 -20 41 0 9 -11 33 -25 53 -14 20 -25 43 -25 51 0 8 -4 15 -9 15 -5 0
-19 28 -31 63 -13 34 -27 67 -32 73 -4 6 -12 55 -17 108 -15 153 2 197 133
341 45 50 87 148 101 240 4 22 13 58 20 80 8 22 19 77 25 123 6 46 20 104 31
129 10 24 19 53 19 63 0 9 7 24 17 31 9 8 22 29 30 47 7 17 20 32 27 32 8 0
21 3 30 6 11 4 16 0 16 -15 0 -11 9 -25 19 -31 17 -8 23 -4 45 36 14 26 26 55
26 66 0 11 6 32 14 46 8 15 22 54 31 87 9 33 21 74 26 90 38 112 42 129 26
139 -12 8 -11 18 10 70 21 54 23 71 17 151 -7 107 -20 165 -37 165 -7 0 -64
-40 -128 -88z m6212 -1906 c11 -14 43 -42 72 -62 64 -47 67 -51 67 -94 0 -19
10 -52 23 -72 48 -80 83 -127 93 -128 5 0 18 -6 28 -13 22 -16 26 -15 -106
-22 -89 -5 -119 -11 -158 -34 -35 -20 -91 -31 -163 -31 -42 0 -79 -5 -82 -10
-4 -7 -13 -7 -26 0 -17 10 -22 6 -34 -24 -8 -20 -15 -38 -15 -41 0 -19 -47
-65 -66 -65 -32 0 -36 -12 -38 -94 -2 -72 -19 -116 -44 -116 -8 0 -28 -6 -45
-14 -30 -13 -51 -19 -120 -33 -16 -3 -31 -11 -33 -18 -3 -7 -37 -25 -77 -41
-40 -16 -79 -37 -87 -47 -20 -23 -110 -47 -185 -47 -33 0 -78 -5 -100 -11 -22
-6 -55 -12 -74 -13 -27 -1 -38 -8 -51 -31 -10 -17 -15 -34 -13 -40 2 -5 -8
-22 -22 -37 -28 -30 -54 -34 -120 -18 -22 6 -59 14 -82 19 l-43 8 0 -96 c0
-53 -5 -103 -10 -111 -7 -12 -42 -16 -169 -20 -88 -3 -162 -8 -166 -11 -8 -9
120 -78 230 -124 50 -21 95 -43 101 -49 16 -16 6 -226 -11 -226 -6 0 -32 13
-56 30 -24 16 -49 30 -55 30 -7 0 -19 11 -28 24 -8 14 -26 28 -38 32 -13 3
-34 15 -48 24 -14 10 -45 23 -70 30 -30 8 -60 27 -90 57 -44 44 -100 81 -100
66 -1 -16 -39 73 -40 92 -1 18 -2 18 -10 -2 -6 -15 -18 -23 -33 -23 -22 0 -82
-26 -119 -52 -13 -9 -39 -9 -115 0 -54 7 -111 12 -126 12 -32 0 -77 26 -77 46
0 7 8 18 18 23 16 10 16 12 0 24 -16 13 -17 26 -8 143 10 142 12 146 85 165
30 8 59 30 121 95 45 46 90 85 100 86 11 2 55 -3 99 -9 97 -15 362 -34 505
-36 l105 -2 3 297 2 298 25 6 c14 3 37 4 52 1 15 -3 38 0 52 5 15 6 85 14 156
18 139 7 199 25 211 63 4 13 12 17 26 14 33 -9 161 22 202 49 21 14 63 32 95
40 31 8 88 29 126 48 39 19 79 37 90 41 39 13 211 37 320 44 61 5 114 9 119 9
4 1 17 -9 27 -22z m-3739 -1472 c15 -9 -5 -33 -57 -69 -50 -34 -60 -37 -121
-36 -71 1 -88 6 -80 26 2 7 0 17 -5 22 -13 13 48 50 100 63 33 8 146 4 163 -6z
m-3077 -857 c15 -16 22 -103 10 -132 -17 -41 -60 -104 -72 -105 -7 0 -13 -6
-13 -13 0 -28 -102 -97 -143 -97 -21 0 -22 4 -19 61 3 43 9 66 23 80 10 10 19
26 19 34 0 8 5 15 10 15 6 0 10 6 10 13 0 7 18 33 40 57 22 25 40 50 40 56 0
10 54 42 73 43 5 1 14 -5 22 -12z m685 -200 c42 -15 129 -61 150 -79 8 -7 44
-49 80 -93 83 -102 247 -272 283 -293 15 -9 27 -21 27 -27 0 -7 11 -40 25 -74
26 -62 26 -63 8 -99 -15 -31 -24 -37 -55 -40 -68 -6 -197 81 -212 143 -6 22
-53 94 -77 115 -21 19 -261 284 -290 320 -49 60 -58 103 -27 124 27 19 42 20
88 3z m4510 -437 c109 -15 110 -16 110 -69 l0 -47 -52 -13 c-77 -20 -90 -28
-78 -50 8 -15 5 -22 -15 -35 -13 -9 -29 -16 -34 -16 -5 0 -11 -10 -13 -22 -4
-28 -33 -31 -33 -3 0 14 -10 23 -33 30 -41 12 -36 29 9 33 43 4 60 20 37 33
-25 14 -23 49 1 49 11 0 22 4 25 8 3 5 -22 8 -54 8 -40 -1 -60 -5 -60 -13 0
-6 5 -15 10 -18 6 -3 10 -15 10 -26 0 -14 -7 -19 -29 -19 -50 0 -61 9 -61 51
0 35 -3 39 -25 39 -33 0 -32 18 1 30 17 7 24 15 20 25 -3 8 0 18 7 22 15 9
146 22 172 16 11 -2 49 -8 85 -13z"/>
<path d="M5535 8411 c-249 -62 -456 -154 -617 -272 -101 -76 -103 -95 -11
-193 37 -39 78 -79 92 -88 39 -26 147 -23 267 7 54 14 125 30 158 35 67 12
141 36 256 82 128 51 154 65 218 123 27 25 54 45 60 45 5 0 36 28 67 62 52 56
57 64 51 96 -3 20 -11 39 -18 43 -41 25 -314 90 -375 88 -21 0 -87 -13 -148
-28z"/>
<path d="M10280 7944 c-162 -73 -286 -141 -276 -152 12 -11 107 -1 163 19 32
11 91 30 131 42 63 19 72 25 68 42 -3 11 -6 32 -6 48 0 33 -10 33 -80 1z"/>
<path d="M3777 7871 c-53 -8 -46 -30 28 -87 92 -71 175 -93 208 -56 10 10 17
24 17 30 0 6 9 16 20 22 29 16 25 23 -32 48 -106 49 -153 57 -241 43z"/>
<path d="M3557 7749 c-36 -77 -57 -142 -57 -175 0 -45 37 -230 52 -258 16 -30
28 -36 78 -36 l45 0 24 75 c29 87 32 189 7 246 -8 20 -34 60 -58 89 -24 29
-50 62 -59 73 -15 19 -16 18 -32 -14z"/>
<path d="M3623 7223 c-34 -4 -43 -23 -20 -41 6 -5 37 -13 67 -17 119 -15 175
-50 71 -44 -87 4 -121 0 -121 -16 0 -22 30 -31 153 -45 59 -7 110 -17 113 -22
3 -4 -52 -8 -121 -7 -70 0 -129 -2 -133 -5 -5 -5 5 -66 34 -213 3 -18 13 -23
62 -28 96 -12 165 -29 170 -44 4 -12 -14 -13 -106 -7 -102 6 -112 5 -121 -13
-20 -36 6 -49 119 -60 142 -15 259 -30 355 -47 98 -16 255 -51 261 -57 3 -2 2
-12 -2 -21 -8 -20 -56 -21 -92 -2 -15 8 -88 19 -162 26 -74 6 -184 20 -245 30
-156 26 -208 31 -224 21 -8 -5 -17 -30 -21 -55 -6 -38 -4 -49 12 -63 15 -14
21 -14 27 -4 5 7 21 12 37 10 56 -4 68 -1 54 16 -20 24 5 19 50 -10 22 -14 40
-29 40 -33 0 -15 394 6 550 28 36 5 117 14 180 20 249 23 480 67 480 91 0 10
-75 49 -147 78 -27 10 -74 31 -105 45 -31 14 -61 26 -66 26 -5 0 -19 11 -31
24 l-22 23 23 -3 c151 -21 356 -68 401 -91 18 -8 40 -24 50 -34 29 -31 60 -32
123 -7 62 25 90 58 74 88 -10 19 -45 55 -119 122 -84 77 -222 132 -481 193
-195 46 -671 115 -925 135 -77 6 -156 12 -175 14 -19 1 -50 1 -67 -1z"/>
<path d="M10395 7049 c-11 -5 -114 -31 -229 -59 -133 -32 -234 -63 -281 -85
-40 -19 -77 -35 -83 -35 -16 0 -31 -25 -23 -39 11 -17 93 -2 196 39 100 39
334 100 383 100 52 0 64 11 60 52 -3 31 -5 34 -23 27z"/>
</g>
</svg>
